<svg xmlns="http://www.w3.org/2000/svg" xmlns:xlink="http://www.w3.org/1999/xlink" width="500" zoomAndPan="magnify" viewBox="0 0 375 187.499995" height="250" preserveAspectRatio="xMidYMid meet" version="1.2"><defs><clipPath id="f3769f2c64"><path d="M 42 35.507812 L 99.234375 35.507812 L 99.234375 89 L 42 89 Z M 42 35.507812 "/></clipPath><clipPath id="f31e54f9d2"><path d="M 19.199219 58 L 99.234375 58 L 99.234375 151.449219 L 19.199219 151.449219 Z M 19.199219 58 "/></clipPath><clipPath id="17fa8cfe29"><path d="M 78.683594 93.046875 L 19.199219 58.703125 L 19.199219 81 L 83.375 118.050781 L 59.375 131.90625 L 19.199219 108.710938 L 19.199219 128.289062 L 59.375 151.484375 L 99.550781 128.289062 L 99.550781 105.09375 Z M 78.683594 93.046875 "/></clipPath><linearGradient x1="88.800272" gradientTransform="matrix(0.00751799,0,0,0.00751799,19.199456,35.508277)" y1="3024.586736" x2="9236.547035" gradientUnits="userSpaceOnUse" y2="16386.652032" id="39d8f0e7ea"><stop style="stop-color:#000190;stop-opacity:1;" offset="0"/><stop style="stop-color:#000290;stop-opacity:1;" offset="0.00390625"/><stop style="stop-color:#000391;stop-opacity:1;" offset="0.0078125"/><stop style="stop-color:#000491;stop-opacity:1;" offset="0.0117188"/><stop style="stop-color:#000592;stop-opacity:1;" offset="0.015625"/><stop style="stop-color:#000692;stop-opacity:1;" offset="0.0195312"/><stop style="stop-color:#000792;stop-opacity:1;" offset="0.0234375"/><stop style="stop-color:#000893;stop-opacity:1;" offset="0.0273438"/><stop style="stop-color:#000993;stop-opacity:1;" offset="0.03125"/><stop style="stop-color:#000a94;stop-opacity:1;" offset="0.0351562"/><stop style="stop-color:#000c94;stop-opacity:1;" offset="0.0390625"/><stop style="stop-color:#000d94;stop-opacity:1;" offset="0.0429688"/><stop style="stop-color:#000e95;stop-opacity:1;" offset="0.046875"/><stop style="stop-color:#000f95;stop-opacity:1;" offset="0.0507813"/><stop style="stop-color:#001096;stop-opacity:1;" offset="0.0546875"/><stop style="stop-color:#001196;stop-opacity:1;" offset="0.0585938"/><stop style="stop-color:#001296;stop-opacity:1;" offset="0.0625"/><stop style="stop-color:#001397;stop-opacity:1;" offset="0.0664063"/><stop style="stop-color:#001497;stop-opacity:1;" offset="0.0703125"/><stop style="stop-color:#001598;stop-opacity:1;" offset="0.0742188"/><stop style="stop-color:#001698;stop-opacity:1;" offset="0.078125"/><stop style="stop-color:#001798;stop-opacity:1;" offset="0.0820313"/><stop style="stop-color:#001899;stop-opacity:1;" offset="0.0859375"/><stop style="stop-color:#001999;stop-opacity:1;" offset="0.0898438"/><stop style="stop-color:#001a9a;stop-opacity:1;" offset="0.09375"/><stop style="stop-color:#001b9a;stop-opacity:1;" offset="0.0976563"/><stop style="stop-color:#001c9a;stop-opacity:1;" offset="0.101563"/><stop style="stop-color:#001d9b;stop-opacity:1;" offset="0.105469"/><stop style="stop-color:#001e9b;stop-opacity:1;" offset="0.109375"/><stop style="stop-color:#001f9c;stop-opacity:1;" offset="0.113281"/><stop style="stop-color:#00209c;stop-opacity:1;" offset="0.117188"/><stop style="stop-color:#00219c;stop-opacity:1;" offset="0.121094"/><stop style="stop-color:#00239d;stop-opacity:1;" offset="0.125"/><stop style="stop-color:#00249d;stop-opacity:1;" offset="0.128906"/><stop style="stop-color:#00259e;stop-opacity:1;" offset="0.132813"/><stop style="stop-color:#00269e;stop-opacity:1;" offset="0.136719"/><stop style="stop-color:#00279e;stop-opacity:1;" offset="0.140625"/><stop style="stop-color:#00289f;stop-opacity:1;" offset="0.144531"/><stop style="stop-color:#00299f;stop-opacity:1;" offset="0.148438"/><stop style="stop-color:#002aa0;stop-opacity:1;" offset="0.152344"/><stop style="stop-color:#002ba0;stop-opacity:1;" offset="0.15625"/><stop style="stop-color:#002ca0;stop-opacity:1;" offset="0.160156"/><stop style="stop-color:#002da1;stop-opacity:1;" offset="0.164063"/><stop style="stop-color:#002ea1;stop-opacity:1;" offset="0.167969"/><stop style="stop-color:#002fa2;stop-opacity:1;" offset="0.171875"/><stop style="stop-color:#0030a2;stop-opacity:1;" offset="0.175781"/><stop style="stop-color:#0031a2;stop-opacity:1;" offset="0.179688"/><stop style="stop-color:#0032a3;stop-opacity:1;" offset="0.183594"/><stop style="stop-color:#0033a3;stop-opacity:1;" offset="0.1875"/><stop style="stop-color:#0034a4;stop-opacity:1;" offset="0.191406"/><stop style="stop-color:#0035a4;stop-opacity:1;" offset="0.195312"/><stop style="stop-color:#0036a4;stop-opacity:1;" offset="0.199219"/><stop style="stop-color:#0037a5;stop-opacity:1;" offset="0.203125"/><stop style="stop-color:#0039a5;stop-opacity:1;" offset="0.207031"/><stop style="stop-color:#003aa6;stop-opacity:1;" offset="0.210938"/><stop style="stop-color:#003ba6;stop-opacity:1;" offset="0.214844"/><stop style="stop-color:#003ca6;stop-opacity:1;" offset="0.21875"/><stop style="stop-color:#003da7;stop-opacity:1;" offset="0.222656"/><stop style="stop-color:#003ea7;stop-opacity:1;" offset="0.226562"/><stop style="stop-color:#003fa8;stop-opacity:1;" offset="0.230469"/><stop style="stop-color:#0040a8;stop-opacity:1;" offset="0.234375"/><stop style="stop-color:#0041a8;stop-opacity:1;" offset="0.238281"/><stop style="stop-color:#0042a9;stop-opacity:1;" offset="0.242187"/><stop style="stop-color:#0043a9;stop-opacity:1;" offset="0.246094"/><stop style="stop-color:#0044aa;stop-opacity:1;" offset="0.25"/><stop style="stop-color:#0045aa;stop-opacity:1;" offset="0.253906"/><stop style="stop-color:#0046aa;stop-opacity:1;" offset="0.257813"/><stop style="stop-color:#0047ab;stop-opacity:1;" offset="0.261719"/><stop style="stop-color:#0048ab;stop-opacity:1;" offset="0.265625"/><stop style="stop-color:#0049ac;stop-opacity:1;" offset="0.269531"/><stop style="stop-color:#004aac;stop-opacity:1;" offset="0.273438"/><stop style="stop-color:#004bac;stop-opacity:1;" offset="0.277344"/><stop style="stop-color:#004cad;stop-opacity:1;" offset="0.28125"/><stop style="stop-color:#004dad;stop-opacity:1;" offset="0.285156"/><stop style="stop-color:#004fae;stop-opacity:1;" offset="0.289062"/><stop style="stop-color:#0050ae;stop-opacity:1;" offset="0.292969"/><stop style="stop-color:#0051ae;stop-opacity:1;" offset="0.296875"/><stop style="stop-color:#0052af;stop-opacity:1;" offset="0.300781"/><stop style="stop-color:#0053af;stop-opacity:1;" offset="0.304688"/><stop style="stop-color:#0054b0;stop-opacity:1;" offset="0.308594"/><stop style="stop-color:#0055b0;stop-opacity:1;" offset="0.3125"/><stop style="stop-color:#0056b0;stop-opacity:1;" offset="0.316406"/><stop style="stop-color:#0057b1;stop-opacity:1;" offset="0.320312"/><stop style="stop-color:#0058b1;stop-opacity:1;" offset="0.324219"/><stop style="stop-color:#0059b2;stop-opacity:1;" offset="0.328125"/><stop style="stop-color:#005ab2;stop-opacity:1;" offset="0.332031"/><stop style="stop-color:#005bb2;stop-opacity:1;" offset="0.335938"/><stop style="stop-color:#005cb3;stop-opacity:1;" offset="0.339844"/><stop style="stop-color:#005db3;stop-opacity:1;" offset="0.34375"/><stop style="stop-color:#005eb4;stop-opacity:1;" offset="0.347656"/><stop style="stop-color:#005fb4;stop-opacity:1;" offset="0.351562"/><stop style="stop-color:#0060b4;stop-opacity:1;" offset="0.355469"/><stop style="stop-color:#0061b5;stop-opacity:1;" offset="0.359375"/><stop style="stop-color:#0062b5;stop-opacity:1;" offset="0.363281"/><stop style="stop-color:#0063b6;stop-opacity:1;" offset="0.367187"/><stop style="stop-color:#0065b6;stop-opacity:1;" offset="0.371094"/><stop style="stop-color:#0066b6;stop-opacity:1;" offset="0.375"/><stop style="stop-color:#0067b7;stop-opacity:1;" offset="0.378906"/><stop style="stop-color:#0068b7;stop-opacity:1;" offset="0.382812"/><stop style="stop-color:#0069b8;stop-opacity:1;" offset="0.386719"/><stop style="stop-color:#006ab8;stop-opacity:1;" offset="0.390625"/><stop style="stop-color:#006bb9;stop-opacity:1;" offset="0.394531"/><stop style="stop-color:#006cb9;stop-opacity:1;" offset="0.398438"/><stop style="stop-color:#006db9;stop-opacity:1;" offset="0.402344"/><stop style="stop-color:#006eba;stop-opacity:1;" offset="0.40625"/><stop style="stop-color:#006fba;stop-opacity:1;" offset="0.410156"/><stop style="stop-color:#0070bb;stop-opacity:1;" offset="0.414062"/><stop style="stop-color:#0071bb;stop-opacity:1;" offset="0.417969"/><stop style="stop-color:#0072bb;stop-opacity:1;" offset="0.421875"/><stop style="stop-color:#0073bc;stop-opacity:1;" offset="0.425781"/><stop style="stop-color:#0074bc;stop-opacity:1;" offset="0.429687"/><stop style="stop-color:#0075bd;stop-opacity:1;" offset="0.433594"/><stop style="stop-color:#0076bd;stop-opacity:1;" offset="0.4375"/><stop style="stop-color:#0077bd;stop-opacity:1;" offset="0.441406"/><stop style="stop-color:#0078be;stop-opacity:1;" offset="0.445312"/><stop style="stop-color:#0079be;stop-opacity:1;" offset="0.449219"/><stop style="stop-color:#007bbf;stop-opacity:1;" offset="0.453125"/><stop style="stop-color:#007cbf;stop-opacity:1;" offset="0.457031"/><stop style="stop-color:#007dbf;stop-opacity:1;" offset="0.460938"/><stop style="stop-color:#007ec0;stop-opacity:1;" offset="0.464844"/><stop style="stop-color:#007fc0;stop-opacity:1;" offset="0.46875"/><stop style="stop-color:#0080c1;stop-opacity:1;" offset="0.472656"/><stop style="stop-color:#0081c1;stop-opacity:1;" offset="0.476562"/><stop style="stop-color:#0082c1;stop-opacity:1;" offset="0.480469"/><stop style="stop-color:#0083c2;stop-opacity:1;" offset="0.484375"/><stop style="stop-color:#0084c2;stop-opacity:1;" offset="0.488281"/><stop style="stop-color:#0085c3;stop-opacity:1;" offset="0.492187"/><stop style="stop-color:#0086c3;stop-opacity:1;" offset="0.496094"/><stop style="stop-color:#0087c3;stop-opacity:1;" offset="0.5"/><stop style="stop-color:#0088c4;stop-opacity:1;" offset="0.503906"/><stop style="stop-color:#0089c4;stop-opacity:1;" offset="0.507812"/><stop style="stop-color:#008ac5;stop-opacity:1;" offset="0.511719"/><stop style="stop-color:#008bc5;stop-opacity:1;" offset="0.515625"/><stop style="stop-color:#008cc5;stop-opacity:1;" offset="0.519531"/><stop style="stop-color:#008dc6;stop-opacity:1;" offset="0.523438"/><stop style="stop-color:#008ec6;stop-opacity:1;" offset="0.527344"/><stop style="stop-color:#008fc7;stop-opacity:1;" offset="0.53125"/><stop style="stop-color:#0091c7;stop-opacity:1;" offset="0.535156"/><stop style="stop-color:#0092c7;stop-opacity:1;" offset="0.539062"/><stop style="stop-color:#0093c8;stop-opacity:1;" offset="0.542969"/><stop style="stop-color:#0094c8;stop-opacity:1;" offset="0.546875"/><stop style="stop-color:#0095c9;stop-opacity:1;" offset="0.550781"/><stop style="stop-color:#0096c9;stop-opacity:1;" offset="0.554688"/><stop style="stop-color:#0097c9;stop-opacity:1;" offset="0.558594"/><stop style="stop-color:#0098ca;stop-opacity:1;" offset="0.5625"/><stop style="stop-color:#0099ca;stop-opacity:1;" offset="0.566406"/><stop style="stop-color:#009acb;stop-opacity:1;" offset="0.570313"/><stop style="stop-color:#009bcb;stop-opacity:1;" offset="0.574219"/><stop style="stop-color:#009ccb;stop-opacity:1;" offset="0.578125"/><stop style="stop-color:#009dcc;stop-opacity:1;" offset="0.582031"/><stop style="stop-color:#009ecc;stop-opacity:1;" offset="0.585938"/><stop style="stop-color:#009fcd;stop-opacity:1;" offset="0.589844"/><stop style="stop-color:#00a0cd;stop-opacity:1;" offset="0.59375"/><stop style="stop-color:#00a1cd;stop-opacity:1;" offset="0.597656"/><stop style="stop-color:#00a2ce;stop-opacity:1;" offset="0.601562"/><stop style="stop-color:#00a3ce;stop-opacity:1;" offset="0.605469"/><stop style="stop-color:#00a4cf;stop-opacity:1;" offset="0.609375"/><stop style="stop-color:#00a5cf;stop-opacity:1;" offset="0.613281"/><stop style="stop-color:#00a6cf;stop-opacity:1;" offset="0.617188"/><stop style="stop-color:#00a8d0;stop-opacity:1;" offset="0.621094"/><stop style="stop-color:#00a9d0;stop-opacity:1;" offset="0.625"/><stop style="stop-color:#00aad1;stop-opacity:1;" offset="0.628906"/><stop style="stop-color:#00abd1;stop-opacity:1;" offset="0.632812"/><stop style="stop-color:#00acd1;stop-opacity:1;" offset="0.636719"/><stop style="stop-color:#00add2;stop-opacity:1;" offset="0.640625"/><stop style="stop-color:#00aed2;stop-opacity:1;" offset="0.644531"/><stop style="stop-color:#00afd3;stop-opacity:1;" offset="0.648438"/><stop style="stop-color:#00b0d3;stop-opacity:1;" offset="0.652344"/><stop style="stop-color:#00b1d3;stop-opacity:1;" offset="0.65625"/><stop style="stop-color:#00b2d4;stop-opacity:1;" offset="0.660156"/><stop style="stop-color:#00b3d4;stop-opacity:1;" offset="0.664062"/><stop style="stop-color:#00b4d5;stop-opacity:1;" offset="0.667969"/><stop style="stop-color:#00b5d5;stop-opacity:1;" offset="0.671875"/><stop style="stop-color:#00b6d5;stop-opacity:1;" offset="0.675781"/><stop style="stop-color:#00b7d6;stop-opacity:1;" offset="0.679687"/><stop style="stop-color:#00b8d6;stop-opacity:1;" offset="0.683594"/><stop style="stop-color:#00b9d7;stop-opacity:1;" offset="0.6875"/><stop style="stop-color:#00bad7;stop-opacity:1;" offset="0.691406"/><stop style="stop-color:#00bbd7;stop-opacity:1;" offset="0.695312"/><stop style="stop-color:#00bcd8;stop-opacity:1;" offset="0.699219"/><stop style="stop-color:#00bed8;stop-opacity:1;" offset="0.703125"/><stop style="stop-color:#00bfd9;stop-opacity:1;" offset="0.707031"/><stop style="stop-color:#00c0d9;stop-opacity:1;" offset="0.710938"/><stop style="stop-color:#00c1d9;stop-opacity:1;" offset="0.714844"/><stop style="stop-color:#00c2da;stop-opacity:1;" offset="0.71875"/><stop style="stop-color:#00c3da;stop-opacity:1;" offset="0.722656"/><stop style="stop-color:#00c4db;stop-opacity:1;" offset="0.726562"/><stop style="stop-color:#00c5db;stop-opacity:1;" offset="0.730469"/><stop style="stop-color:#00c6db;stop-opacity:1;" offset="0.734375"/><stop style="stop-color:#00c7dc;stop-opacity:1;" offset="0.738281"/><stop style="stop-color:#00c8dc;stop-opacity:1;" offset="0.742188"/><stop style="stop-color:#00c9dd;stop-opacity:1;" offset="0.746094"/><stop style="stop-color:#00cadd;stop-opacity:1;" offset="0.75"/><stop style="stop-color:#00cbdd;stop-opacity:1;" offset="0.753906"/><stop style="stop-color:#00ccde;stop-opacity:1;" offset="0.757812"/><stop style="stop-color:#00cdde;stop-opacity:1;" offset="0.761719"/><stop style="stop-color:#00cedf;stop-opacity:1;" offset="0.765625"/><stop style="stop-color:#00cfdf;stop-opacity:1;" offset="0.769531"/><stop style="stop-color:#00d0df;stop-opacity:1;" offset="0.773437"/><stop style="stop-color:#00d1e0;stop-opacity:1;" offset="0.777344"/><stop style="stop-color:#00d2e0;stop-opacity:1;" offset="0.78125"/><stop style="stop-color:#00d4e1;stop-opacity:1;" offset="0.785156"/><stop style="stop-color:#00d5e1;stop-opacity:1;" offset="0.789062"/><stop style="stop-color:#00d6e1;stop-opacity:1;" offset="0.792969"/><stop style="stop-color:#00d7e2;stop-opacity:1;" offset="0.796875"/><stop style="stop-color:#00d8e2;stop-opacity:1;" offset="0.800781"/><stop style="stop-color:#00d9e3;stop-opacity:1;" offset="0.804688"/><stop style="stop-color:#00dae3;stop-opacity:1;" offset="0.808594"/><stop style="stop-color:#00dbe3;stop-opacity:1;" offset="0.8125"/><stop style="stop-color:#00dce4;stop-opacity:1;" offset="0.816406"/><stop style="stop-color:#00dde4;stop-opacity:1;" offset="0.820312"/><stop style="stop-color:#00dee5;stop-opacity:1;" offset="0.824219"/><stop style="stop-color:#00dfe5;stop-opacity:1;" offset="0.828125"/><stop style="stop-color:#00dfe5;stop-opacity:1;" offset="0.84375"/><stop style="stop-color:#00dfe5;stop-opacity:1;" offset="0.875"/><stop style="stop-color:#00dfe5;stop-opacity:1;" offset="1"/></linearGradient><clipPath id="9027463077"><path d="M 77 58 L 99.234375 58 L 99.234375 69 L 77 69 Z M 77 58 "/></clipPath><clipPath id="8465d58897"><rect x="0" width="89" y="0" height="19"/></clipPath><clipPath id="580ebbb772"><rect x="0" width="242" y="0" height="80"/></clipPath></defs><g id="6575b6ac84"><g clip-rule="nonzero" clip-path="url(#f3769f2c64)"><path style=" stroke:none;fill-rule:evenodd;fill:#01247d;fill-opacity:1;" d="M 66.925781 77.539062 L 86.234375 88.6875 L 99.550781 81 L 99.550781 58.703125 L 59.375 35.507812 L 42.710938 45.128906 L 82.890625 68.324219 Z M 66.925781 77.539062 "/></g><g clip-rule="nonzero" clip-path="url(#f31e54f9d2)"><g clip-rule="evenodd" clip-path="url(#17fa8cfe29)"><path style=" stroke:none;fill-rule:nonzero;fill:url(#39d8f0e7ea);" d="M 19.199219 58.703125 L 19.199219 151.449219 L 99.234375 151.449219 L 99.234375 58.703125 Z M 19.199219 58.703125 "/></g></g><g clip-rule="nonzero" clip-path="url(#9027463077)"><path style=" stroke:none;fill-rule:evenodd;fill:#011127;fill-opacity:1;" d="M 82.890625 68.324219 L 99.550781 58.703125 L 77.777344 65.375 Z M 82.890625 68.324219 "/></g><g transform="matrix(1,0,0,1,257,122)"><g clip-path="url(#8465d58897)"><g style="fill:#ffffff;fill-opacity:1;"><g transform="translate(1.484384, 12.927632)"><path style="stroke:none" d="M 6.015625 0.203125 C 5.085938 0.203125 4.285156 0.0546875 3.609375 -0.234375 C 2.941406 -0.523438 2.390625 -0.914062 1.953125 -1.40625 C 1.515625 -1.894531 1.1875 -2.445312 0.96875 -3.0625 C 0.757812 -3.6875 0.65625 -4.335938 0.65625 -5.015625 C 0.65625 -5.679688 0.765625 -6.328125 0.984375 -6.953125 C 1.203125 -7.585938 1.53125 -8.160156 1.96875 -8.671875 C 2.40625 -9.179688 2.957031 -9.582031 3.625 -9.875 C 4.300781 -10.175781 5.097656 -10.328125 6.015625 -10.328125 C 6.703125 -10.328125 7.359375 -10.203125 7.984375 -9.953125 C 8.617188 -9.703125 9.195312 -9.316406 9.71875 -8.796875 L 8.640625 -7.75 C 8.265625 -8.101562 7.847656 -8.363281 7.390625 -8.53125 C 6.941406 -8.707031 6.484375 -8.796875 6.015625 -8.796875 C 5.359375 -8.796875 4.789062 -8.6875 4.3125 -8.46875 C 3.84375 -8.257812 3.457031 -7.972656 3.15625 -7.609375 C 2.851562 -7.242188 2.628906 -6.835938 2.484375 -6.390625 C 2.335938 -5.941406 2.265625 -5.484375 2.265625 -5.015625 C 2.265625 -4.554688 2.335938 -4.101562 2.484375 -3.65625 C 2.628906 -3.21875 2.851562 -2.820312 3.15625 -2.46875 C 3.457031 -2.113281 3.84375 -1.832031 4.3125 -1.625 C 4.789062 -1.425781 5.359375 -1.328125 6.015625 -1.328125 C 6.484375 -1.328125 6.957031 -1.421875 7.4375 -1.609375 C 7.925781 -1.796875 8.347656 -2.066406 8.703125 -2.421875 L 9.828125 -1.3125 C 9.304688 -0.78125 8.71875 -0.394531 8.0625 -0.15625 C 7.40625 0.0820312 6.722656 0.203125 6.015625 0.203125 Z M 6.015625 0.203125 "/></g></g><g style="fill:#ffffff;fill-opacity:1;"><g transform="translate(23.298383, 12.927632)"><path style="stroke:none" d="M 1.28125 0 L 1.28125 -10.15625 L 2.90625 -10.15625 L 2.90625 -1.515625 L 8.265625 -1.515625 L 8.265625 0 Z M 1.28125 0 "/></g></g><g style="fill:#ffffff;fill-opacity:1;"><g transform="translate(43.429141, 12.927632)"><path style="stroke:none" d="M 5.4375 0.203125 C 4.65625 0.203125 3.9375 0.0351562 3.28125 -0.296875 C 2.632812 -0.628906 2.113281 -1.125 1.71875 -1.78125 C 1.332031 -2.4375 1.140625 -3.238281 1.140625 -4.1875 L 1.140625 -10.15625 L 2.765625 -10.15625 L 2.765625 -4.1875 C 2.765625 -3.25 3.019531 -2.53125 3.53125 -2.03125 C 4.050781 -1.539062 4.707031 -1.296875 5.5 -1.296875 C 6.269531 -1.296875 6.90625 -1.539062 7.40625 -2.03125 C 7.90625 -2.53125 8.15625 -3.25 8.15625 -4.1875 L 8.15625 -10.15625 L 9.765625 -10.15625 L 9.765625 -4.1875 C 9.765625 -3.195312 9.566406 -2.375 9.171875 -1.71875 C 8.785156 -1.070312 8.265625 -0.585938 7.609375 -0.265625 C 6.953125 0.046875 6.226562 0.203125 5.4375 0.203125 Z M 5.4375 0.203125 "/></g></g><g style="fill:#ffffff;fill-opacity:1;"><g transform="translate(65.954161, 12.927632)"><path style="stroke:none" d="M 1.28125 0 L 1.28125 -10.15625 L 5.9375 -10.15625 C 6.582031 -10.15625 7.164062 -10.050781 7.6875 -9.84375 C 8.207031 -9.644531 8.617188 -9.332031 8.921875 -8.90625 C 9.234375 -8.488281 9.390625 -7.941406 9.390625 -7.265625 C 9.390625 -6.828125 9.273438 -6.425781 9.046875 -6.0625 C 8.816406 -5.707031 8.460938 -5.429688 7.984375 -5.234375 C 8.390625 -5.117188 8.71875 -4.925781 8.96875 -4.65625 C 9.226562 -4.382812 9.414062 -4.085938 9.53125 -3.765625 C 9.65625 -3.453125 9.71875 -3.164062 9.71875 -2.90625 C 9.71875 -2.164062 9.539062 -1.582031 9.1875 -1.15625 C 8.84375 -0.726562 8.382812 -0.425781 7.8125 -0.25 C 7.238281 -0.0820312 6.613281 0 5.9375 0 Z M 2.890625 -5.953125 L 5.953125 -5.953125 C 6.554688 -5.953125 7.007812 -6.0625 7.3125 -6.28125 C 7.625 -6.507812 7.78125 -6.828125 7.78125 -7.234375 C 7.78125 -7.472656 7.710938 -7.703125 7.578125 -7.921875 C 7.441406 -8.148438 7.234375 -8.332031 6.953125 -8.46875 C 6.679688 -8.613281 6.34375 -8.6875 5.9375 -8.6875 L 2.890625 -8.6875 Z M 2.890625 -1.515625 L 5.9375 -1.515625 C 6.238281 -1.515625 6.550781 -1.550781 6.875 -1.625 C 7.207031 -1.707031 7.488281 -1.847656 7.71875 -2.046875 C 7.957031 -2.253906 8.078125 -2.546875 8.078125 -2.921875 C 8.078125 -3.285156 7.960938 -3.582031 7.734375 -3.8125 C 7.515625 -4.050781 7.238281 -4.222656 6.90625 -4.328125 C 6.582031 -4.441406 6.265625 -4.5 5.953125 -4.5 L 2.890625 -4.5 Z M 2.890625 -1.515625 "/></g></g></g></g><g transform="matrix(1,0,0,1,108,44)"><g clip-path="url(#580ebbb772)"><g style="fill:#ffffff;fill-opacity:1;"><g transform="translate(1.328095, 71.880257)"><path style="stroke:none" d="M 25.484375 -36.71875 C 25.484375 -38.28125 25.085938 -39.484375 24.296875 -40.328125 C 23.515625 -41.179688 22.625 -41.789062 21.625 -42.15625 C 20.625 -42.53125 19.726562 -42.75 18.9375 -42.8125 C 18.15625 -42.882812 17.765625 -42.921875 17.765625 -42.921875 L 9.9375 -42.921875 L 9.9375 -30.96875 L 17.765625 -30.96875 C 17.765625 -30.96875 18.15625 -31 18.9375 -31.0625 C 19.726562 -31.125 20.625 -31.328125 21.625 -31.671875 C 22.625 -32.023438 23.515625 -32.59375 24.296875 -33.375 C 25.085938 -34.164062 25.484375 -35.28125 25.484375 -36.71875 Z M 35.46875 -37.296875 C 35.46875 -34.253906 34.757812 -31.835938 33.34375 -30.046875 C 31.9375 -28.265625 30.226562 -26.957031 28.21875 -26.125 C 30.3125 -25.4375 31.898438 -24.492188 32.984375 -23.296875 C 34.078125 -22.097656 34.851562 -20.875 35.3125 -19.625 C 35.769531 -18.382812 36.03125 -17.335938 36.09375 -16.484375 C 36.15625 -15.640625 36.1875 -15.21875 36.1875 -15.21875 C 36.1875 -12.300781 35.675781 -9.90625 34.65625 -8.03125 C 33.632812 -6.15625 32.328125 -4.671875 30.734375 -3.578125 C 29.148438 -2.492188 27.492188 -1.691406 25.765625 -1.171875 C 24.046875 -0.648438 22.457031 -0.320312 21 -0.1875 C 19.539062 -0.0625 18.460938 0 17.765625 0 L 10 0 L 10 -9.53125 L 17.765625 -9.53125 C 18.859375 -9.53125 20.054688 -9.671875 21.359375 -9.953125 C 22.671875 -10.242188 23.804688 -10.820312 24.765625 -11.6875 C 25.722656 -12.5625 26.203125 -13.828125 26.203125 -15.484375 C 26.203125 -16.703125 25.914062 -17.691406 25.34375 -18.453125 C 24.78125 -19.210938 24.082031 -19.789062 23.25 -20.1875 C 22.425781 -20.582031 21.585938 -20.84375 20.734375 -20.96875 C 19.890625 -21.101562 19.179688 -21.179688 18.609375 -21.203125 C 18.046875 -21.222656 17.765625 -21.234375 17.765625 -21.234375 L 0 -21.234375 L 0 -51.671875 C 0 -52.066406 0.238281 -52.265625 0.71875 -52.265625 L 17.765625 -52.265625 C 17.765625 -52.265625 18.1875 -52.238281 19.03125 -52.1875 C 19.882812 -52.144531 20.988281 -52.003906 22.34375 -51.765625 C 23.695312 -51.523438 25.125 -51.113281 26.625 -50.53125 C 28.125 -49.945312 29.546875 -49.109375 30.890625 -48.015625 C 32.242188 -46.929688 33.34375 -45.515625 34.1875 -43.765625 C 35.039062 -42.023438 35.46875 -39.867188 35.46875 -37.296875 Z M 35.46875 -37.296875 "/></g></g><g style="fill:#ffffff;fill-opacity:1;"><g transform="translate(39.350173, 71.880257)"><path style="stroke:none" d="M 35.671875 -0.84375 C 35.753906 -0.625 35.738281 -0.425781 35.625 -0.25 C 35.519531 -0.0820312 35.335938 0 35.078125 0 L 25.734375 0 C 25.390625 0 25.175781 -0.128906 25.09375 -0.390625 L 15.546875 -21.09375 L 9.9375 -21.09375 L 9.9375 -0.59375 C 9.9375 -0.195312 9.695312 0 9.21875 0 L 0.65625 0 C 0.21875 0 0 -0.195312 0 -0.59375 L 0 -30.703125 L 17.578125 -30.703125 C 18.097656 -30.703125 18.789062 -30.742188 19.65625 -30.828125 C 20.53125 -30.921875 21.390625 -31.160156 22.234375 -31.546875 C 23.085938 -31.941406 23.804688 -32.539062 24.390625 -33.34375 C 24.984375 -34.15625 25.28125 -35.28125 25.28125 -36.71875 C 25.28125 -38.15625 24.960938 -39.285156 24.328125 -40.109375 C 23.703125 -40.941406 22.929688 -41.539062 22.015625 -41.90625 C 21.097656 -42.28125 20.222656 -42.519531 19.390625 -42.625 C 18.566406 -42.738281 17.960938 -42.796875 17.578125 -42.796875 L 0 -42.796875 L 0 -51.671875 C 0 -52.066406 0.21875 -52.265625 0.65625 -52.265625 L 17.578125 -52.265625 C 18.179688 -52.265625 19.15625 -52.207031 20.5 -52.09375 C 21.851562 -51.988281 23.367188 -51.695312 25.046875 -51.21875 C 26.722656 -50.738281 28.332031 -49.953125 29.875 -48.859375 C 31.425781 -47.773438 32.703125 -46.253906 33.703125 -44.296875 C 34.710938 -42.335938 35.21875 -39.8125 35.21875 -36.71875 C 35.21875 -34.0625 34.78125 -31.804688 33.90625 -29.953125 C 33.03125 -28.097656 31.863281 -26.582031 30.40625 -25.40625 C 28.945312 -24.238281 27.347656 -23.328125 25.609375 -22.671875 C 27.265625 -18.960938 28.953125 -15.300781 30.671875 -11.6875 C 32.390625 -8.070312 34.054688 -4.457031 35.671875 -0.84375 Z M 35.671875 -0.84375 "/></g></g><g style="fill:#ffffff;fill-opacity:1;"><g transform="translate(76.914936, 71.880257)"><path style="stroke:none" d="M 41.03125 -0.78125 C 41.113281 -0.601562 41.085938 -0.425781 40.953125 -0.25 C 40.828125 -0.0820312 40.65625 0 40.4375 0 L 31.421875 0 C 31.117188 0 30.921875 -0.128906 30.828125 -0.390625 L 20.515625 -29.53125 L 10.328125 -0.390625 C 10.273438 -0.128906 10.054688 0 9.671875 0 L 0.71875 0 C 0.414062 0 0.207031 -0.0820312 0.09375 -0.25 C -0.0078125 -0.425781 -0.0195312 -0.601562 0.0625 -0.78125 L 19.859375 -51.875 C 19.941406 -52.132812 20.15625 -52.265625 20.5 -52.265625 C 20.851562 -52.265625 21.078125 -52.132812 21.171875 -51.875 Z M 41.03125 -0.78125 "/></g></g><g style="fill:#ffffff;fill-opacity:1;"><g transform="translate(120.03275, 71.880257)"><path style="stroke:none" d="M 43.25 -52.265625 C 43.726562 -52.265625 43.96875 -52.066406 43.96875 -51.671875 L 43.96875 -0.59375 C 43.96875 -0.195312 43.726562 0 43.25 0 L 34.625 0 C 34.582031 0 34.484375 -0.0195312 34.328125 -0.0625 C 34.171875 -0.101562 34.070312 -0.148438 34.03125 -0.203125 L 10 -34.625 L 10 -12.546875 L 0 -12.546875 L 0 -51.671875 C 0 -52.066406 0.21875 -52.265625 0.65625 -52.265625 L 9.34375 -52.265625 C 9.425781 -52.265625 9.53125 -52.253906 9.65625 -52.234375 C 9.789062 -52.210938 9.882812 -52.15625 9.9375 -52.0625 L 34.03125 -17.640625 L 34.03125 -51.671875 C 34.03125 -52.066406 34.289062 -52.265625 34.8125 -52.265625 Z M 43.25 -52.265625 "/></g></g><g style="fill:#ffffff;fill-opacity:1;"><g transform="translate(166.221072, 71.880257)"><path style="stroke:none" d="M 28.21875 -9.734375 C 28.695312 -9.734375 28.9375 -9.515625 28.9375 -9.078125 L 28.9375 -0.59375 C 28.9375 -0.195312 28.695312 0 28.21875 0 L 0.71875 0 C 0.238281 0 0 -0.195312 0 -0.59375 L 0 -9.734375 Z M 10 -19.734375 L 0 -19.734375 L 0 -51.671875 C 0 -52.066406 0.238281 -52.265625 0.71875 -52.265625 L 9.34375 -52.265625 C 9.78125 -52.265625 10 -52.066406 10 -51.671875 Z M 10 -19.734375 "/></g></g><g style="fill:#ffffff;fill-opacity:1;"><g transform="translate(196.664873, 71.880257)"><path style="stroke:none" d="M 29.65625 -42.265625 L 41.8125 -42.265625 L 29.203125 -24.5625 L 29.203125 -0.59375 C 29.203125 -0.195312 28.960938 0 28.484375 0 L 19.921875 0 C 19.441406 0 19.203125 -0.195312 19.203125 -0.59375 L 19.203125 -24.5625 C 16.066406 -29.050781 12.898438 -33.515625 9.703125 -37.953125 C 6.503906 -42.398438 3.3125 -46.84375 0.125 -51.28125 C -0.0390625 -51.5 -0.0625 -51.71875 0.0625 -51.9375 C 0.195312 -52.15625 0.4375 -52.265625 0.78125 -52.265625 L 11.109375 -52.265625 C 11.410156 -52.265625 11.628906 -52.195312 11.765625 -52.0625 L 24.171875 -34.625 Z M 29.65625 -42.265625 "/></g></g></g></g></g></svg>